<svg width="25" height="15" viewBox="0 0 25 15" fill="none" xmlns="http://www.w3.org/2000/svg">
<path d="M24.7502 1.71318L23.4978 0.460855C23.3309 0.29362 23.1387 0.210266 22.9213 0.210266C22.7045 0.210266 22.5124 0.29362 22.3455 0.460855L12.5001 10.3057L2.65522 0.461118C2.48825 0.293884 2.2961 0.210529 2.07903 0.210529C1.86187 0.210529 1.66971 0.293884 1.50283 0.461118L0.250589 1.71354C0.0833541 1.88042 0 2.07257 0 2.28973C0 2.50672 0.0836173 2.69887 0.250589 2.86575L11.9239 14.5394C12.0908 14.7063 12.2831 14.7898 12.5001 14.7898C12.7172 14.7898 12.9091 14.7063 13.0759 14.5394L24.7502 2.86575C24.9171 2.69878 25 2.50663 25 2.28973C25 2.07257 24.9171 1.88042 24.7502 1.71318Z" fill="#353A40"/>
</svg>
